<?xml version="1.0" standalone="no"?>
<!DOCTYPE svg PUBLIC "-//W3C//DTD SVG 20010904//EN"
 "http://www.w3.org/TR/2001/REC-SVG-20010904/DTD/svg10.dtd">
<svg version="1.0" xmlns="http://www.w3.org/2000/svg"
 width="256.000000pt" height="256.000000pt" viewBox="0 0 256.000000 256.000000"
 preserveAspectRatio="xMidYMid meet">

<g transform="translate(0.000000,256.000000) scale(0.100000,-0.100000)"
fill="#000000" stroke="none">
<path d="M390 1280 l0 -1280 890 0 890 0 0 1280 0 1280 -890 0 -890 0 0 -1280z
m1173 788 c5 -31 25 -111 48 -188 6 -19 13 -50 16 -67 3 -18 9 -33 14 -33 5 0
9 -16 9 -35 0 -19 5 -35 10 -35 6 0 10 -18 10 -40 0 -22 5 -40 10 -40 6 0 10
-11 10 -25 0 -14 4 -33 9 -43 14 -26 53 -162 58 -204 3 -21 9 -38 14 -38 5 0
9 -16 9 -35 0 -19 5 -35 10 -35 6 0 10 -18 10 -40 0 -22 4 -40 9 -40 5 0 11
-15 14 -32 3 -18 10 -51 17 -73 6 -22 17 -61 23 -87 6 -27 15 -48 19 -48 4 0
8 -16 8 -35 0 -19 5 -35 10 -35 6 0 10 -18 10 -40 0 -22 5 -40 10 -40 6 0 10
-16 10 -35 0 -19 4 -35 9 -35 5 0 11 -15 14 -32 3 -18 9 -45 12 -61 l7 -27
-161 0 -161 0 0 40 c0 22 -4 40 -10 40 -5 0 -10 7 -10 16 0 8 -7 36 -15 62 -8
26 -24 82 -37 125 l-23 77 -220 0 -220 0 -24 -82 c-12 -46 -25 -98 -28 -116
-3 -18 -9 -35 -14 -38 -5 -3 -9 -18 -9 -35 0 -16 -4 -29 -10 -29 -5 0 -10 -13
-10 -30 l0 -30 -150 0 c-109 0 -150 3 -150 12 0 14 19 77 31 100 5 10 9 31 9
48 0 16 5 30 10 30 6 0 10 14 10 30 0 17 4 38 9 48 5 9 14 35 20 57 25 98 43
162 52 183 5 13 9 34 9 47 0 14 5 25 10 25 6 0 10 16 10 35 0 19 5 35 10 35 6
0 10 18 10 40 0 22 5 40 10 40 6 0 10 10 10 23 0 12 11 56 25 97 13 41 25 85
25 98 0 12 5 22 10 22 6 0 10 16 10 35 0 19 5 35 10 35 6 0 10 18 10 40 0 22
5 40 10 40 6 0 10 16 10 35 0 19 4 35 9 35 5 0 11 15 14 33 5 30 25 110 48
187 6 19 13 50 16 68 l5 32 213 0 213 0 5 -32z"/>
<path d="M1326 1804 c-3 -9 -6 -26 -6 -39 0 -13 -4 -27 -10 -30 -5 -3 -10 -24
-10 -46 0 -21 -4 -39 -10 -39 -5 0 -10 -18 -10 -40 0 -22 -4 -40 -10 -40 -5 0
-10 -14 -10 -30 0 -17 -4 -38 -10 -48 -10 -19 -50 -170 -57 -219 -3 -18 -9
-33 -14 -33 -5 0 -9 -11 -9 -25 l0 -25 166 0 166 0 -5 38 c-6 47 -51 209 -60
218 -4 4 -7 22 -7 41 0 18 -4 33 -10 33 -5 0 -10 18 -10 40 0 22 -4 40 -10 40
-5 0 -10 13 -10 30 0 16 -4 39 -9 52 -5 13 -17 49 -26 81 -9 31 -18 57 -20 57
-2 0 -6 -7 -9 -16z"/>
</g>
</svg>
